<svg width="100%" viewBox="0 0 680 160" role="img" xmlns="http://www.w3.org/2000/svg">
<title>Prem Sahith GitHub banner</title>
<desc>Dark cinematic banner with fire, smoke, and code aesthetic matching a Batman profile picture</desc>
<defs>
  <clipPath id="bannerClip">
    <rect width="680" height="160" rx="0"/>
  </clipPath>
  <radialGradient id="fireGlow" cx="50%" cy="100%" r="70%">
    <stop offset="0%" stop-color="#c0390b" stop-opacity="0.55"/>
    <stop offset="45%" stop-color="#7a1a00" stop-opacity="0.3"/>
    <stop offset="100%" stop-color="#0a0a0f" stop-opacity="0"/>
  </radialGradient>
  <radialGradient id="centerGlow" cx="50%" cy="50%" r="50%">
    <stop offset="0%" stop-color="#1a0800" stop-opacity="0.0"/>
    <stop offset="100%" stop-color="#0a0a0f" stop-opacity="0"/>
  </radialGradient>
  <linearGradient id="smokeFade" x1="0" y1="0" x2="0" y2="1">
    <stop offset="0%" stop-color="#1a1a2e" stop-opacity="0.95"/>
    <stop offset="100%" stop-color="#0d0d18" stop-opacity="1"/>
  </linearGradient>
</defs>

<g clip-path="url(#bannerClip)">

<rect width="680" height="160" fill="#0a0a12"/>
<rect width="680" height="160" fill="url(#smokeFade)"/>

<ellipse cx="340" cy="158" rx="320" ry="90" fill="#8b2200" opacity="0.18"/>
<ellipse cx="340" cy="158" rx="200" ry="60" fill="#c03800" opacity="0.15"/>
<ellipse cx="340" cy="158" rx="100" ry="35" fill="#e04800" opacity="0.12"/>

<path d="M0,155 Q15,138 22,145 Q30,120 40,138 Q50,108 62,130 Q72,100 85,125 Q95,90 108,118 Q118,80 132,112 Q142,70 158,105 Q168,60 185,98 Q195,50 212,90 Q225,42 242,85 Q255,35 272,80 Q285,28 302,75 Q315,22 332,70 Q340,18 348,70 Q365,22 378,75 Q395,28 412,80 Q425,35 442,85 Q455,42 472,90 Q485,50 500,98 Q512,60 528,105 Q538,70 555,112 Q565,80 580,118 Q590,90 602,125 Q612,100 622,130 Q632,108 642,138 Q650,120 658,145 Q665,138 680,155 L680,160 L0,160 Z" fill="#7a2000" opacity="0.55"/>

<path d="M80,155 Q90,130 98,142 Q108,112 120,135 Q132,88 148,120 Q160,72 178,108 Q192,58 210,95 Q225,42 248,82 Q262,30 285,72 Q300,18 320,65 Q330,12 340,60 Q350,12 360,65 Q380,18 395,72 Q418,30 432,82 Q455,42 470,95 Q488,58 502,108 Q520,72 532,120 Q548,88 560,135 Q572,112 582,142 Q590,130 600,155 L680,155 L680,160 L0,160 Z" fill="#a83000" opacity="0.4"/>

<path d="M160,155 Q172,128 182,140 Q194,100 210,128 Q225,75 245,112 Q262,52 282,92 Q300,28 320,72 Q330,15 340,58 Q350,15 360,72 Q380,28 398,92 Q418,52 435,112 Q455,75 470,128 Q486,100 498,140 Q508,128 520,155 L680,155 L680,160 L0,160 Z" fill="#cc4400" opacity="0.22"/>

<ellipse cx="155" cy="80" rx="18" ry="14" fill="#1a1a2e" opacity="0.6"/>
<ellipse cx="190" cy="55" rx="28" ry="18" fill="#1a1a2e" opacity="0.5"/>
<ellipse cx="120" cy="65" rx="22" ry="15" fill="#161626" opacity="0.55"/>
<ellipse cx="230" cy="42" rx="35" ry="20" fill="#12121e" opacity="0.5"/>
<ellipse cx="90" cy="48" rx="20" ry="13" fill="#1a1a2e" opacity="0.45"/>

<ellipse cx="525" cy="80" rx="18" ry="14" fill="#1a1a2e" opacity="0.6"/>
<ellipse cx="490" cy="55" rx="28" ry="18" fill="#1a1a2e" opacity="0.5"/>
<ellipse cx="560" cy="65" rx="22" ry="15" fill="#161626" opacity="0.55"/>
<ellipse cx="450" cy="42" rx="35" ry="20" fill="#12121e" opacity="0.5"/>
<ellipse cx="590" cy="48" rx="20" ry="13" fill="#1a1a2e" opacity="0.45"/>

<ellipse cx="340" cy="35" rx="50" ry="25" fill="#12121e" opacity="0.4"/>

<circle cx="60" cy="22" r="1" fill="#e8d5b0" opacity="0.7"/>
<circle cx="105" cy="12" r="0.8" fill="#e8d5b0" opacity="0.5"/>
<circle cx="148" cy="28" r="1.2" fill="#e8d5b0" opacity="0.6"/>
<circle cx="192" cy="8" r="0.7" fill="#e8d5b0" opacity="0.4"/>
<circle cx="235" cy="18" r="1" fill="#e8d5b0" opacity="0.5"/>
<circle cx="278" cy="6" r="0.8" fill="#e8d5b0" opacity="0.6"/>
<circle cx="400" cy="14" r="1" fill="#e8d5b0" opacity="0.5"/>
<circle cx="445" cy="5" r="0.8" fill="#e8d5b0" opacity="0.4"/>
<circle cx="490" cy="22" r="1.2" fill="#e8d5b0" opacity="0.65"/>
<circle cx="535" cy="10" r="0.7" fill="#e8d5b0" opacity="0.5"/>
<circle cx="580" cy="26" r="1" fill="#e8d5b0" opacity="0.55"/>
<circle cx="622" cy="8" r="0.8" fill="#e8d5b0" opacity="0.4"/>

<text x="340" y="75" text-anchor="middle" font-family="Georgia, serif" font-size="38" font-weight="700" letter-spacing="4" fill="#f0e8d8" opacity="0.95">PREM SAHITH</text>

<line x1="200" y1="84" x2="310" y2="84" stroke="#c04400" stroke-width="0.8" opacity="0.7"/>
<line x1="370" y1="84" x2="480" y2="84" stroke="#c04400" stroke-width="0.8" opacity="0.7"/>

<text x="340" y="102" text-anchor="middle" font-family="'Courier New', monospace" font-size="12" font-weight="400" letter-spacing="3" fill="#b08060" opacity="0.85">FULL STACK DEVELOPER  ·  IIIT SRI CITY</text>

<text x="340" y="126" text-anchor="middle" font-family="'Courier New', monospace" font-size="10" letter-spacing="1.5" fill="#804020" opacity="0.8">building · exploring · shipping</text>

<rect x="0" y="0" width="680" height="160" fill="url(#fireGlow)"/>

<rect x="0" y="152" width="680" height="8" fill="#1a0800" opacity="0.6"/>

</g>
</svg>
